/* XPM */
static char *e897a9d28cdd4952de7f1142ef0ac71b[] = {
/* columns rows colors chars-per-pixel */
"128 128 19 1 ",
"  c #005D84",
". c #115E85",
"X c #20688D",
"o c #2F7294",
"O c #3E7C9C",
"+ c #4D86A4",
"@ c #5B90AB",
"# c #6A9AB3",
"$ c #79A4BA",
"% c #88AFC2",
"& c #97B9CA",
"* c #A6C3D1",
"= c #B5CDD9",
"- c #C4D7E1",
"; c #D2E1E8",
": c #E1EBF0",
"> c #F0F5F7",
", c gray100",
"< c None",
/* pixels */
"<<<<<<<<<<<<<<<<<<<<<<<<<<<<<<<<<<<<<<<<<<<<<<<<<<<<<<<<<<<<<<<<<<<<<<<<<<<<<<<<<<<<<<<<<<<<<<<<<<<<<<<<<<<<<<<<<<<<<<<<<<<<<<<<",
"<<,,,,,,,,,,,,,,,,,,,,,,,,,,,,,,,,,,,<<<<<<<<<<<<<<<<<<<<<<,,,,,,,,,,,,,,,,,,,,,,,,,,,,,,,,<<<<<<<<<<<<<<<<<<<<<<<<<<<<<<<<<<<<<",
"<,,,,,,,,,,,,,,,,,,,,,,,,,,,,,,,,,,,,,<<<<<<<<<<<<<<<<<<<<,,,,,,,,,,,,,,,,,,,,,,,,,,,,,,,,,,<<<<<<<<<<<<<<<<<<<<<<<<<<<<<<<<<<<<",
",,,,,,,,,,,,,,,,,,,,,,,,,,,,,,,,,,,,,,<<<<<<<<<<<<<<<<<<<,,,,,,,,,,,,,,,,,,,,,,,,,,,,,,,,,,,,<<<<<<<<<<<<<<<<<<<<<<<<<<<<<<<<<<<",
",,,,,,,,,,,,,,,,,,,,,,,,,,,,,,,,,,,,,,,<<<<<<<<<<<<<<<<<<,,,,,,,,,,,,,,,,,,,,,,,,,,,,,,,,,,,,<<<<<<<<<<<<<<<<<<<<<<<<<<<<<<<<<<<",
",,,,                             -,,,,,,<<<<<<<<<<<<<<<<<,,,,                            ,,,,<<<<<<<<<<<<<<<<<<<<<<<<<<<<<<<<<<<",
",,,,                            ..%,,,,,<<<<<<<<<<<<<<<<<,,,,                            ,,,,<<<<<<<<<<<<<<<<<<<<<<<<<<<<<<<<<<<",
",,,,                            ..X:,,,,,<<<<<<<<<<<<<<<<,,,,                            ,,,,<<<<<<<<<<<<<<<<<<<<<<<<<<<<<<<<<<<",
",,,,                            ...+,,,,,,<<<<<<<<<<<<<<<,,,,                            ,,,,<<<<<<<<<<<<<<<<<<<<<<<<<<<<<<<<<<<",
",,,,                            ....=,,,,,<<<<<<<<<<<<<<<,,,,                            ,,,,<<<<<<<<<<<<<<<<<<<<<<<<<<<<<<<<<<<",
",,,,                            ....X>,,,,,<<<<<<<<<<<<<<,,,,                            ,,,,<<<<<<<<<<<<<<<<<<<<<<<<<<<<<<<<<<<",
",,,,                            .....#,,,,,<<<<<<<<<<<<<<,,,,                            ,,,,<<<<<<<<<<<<<<<<<<<<<<<<<<<<<<<<<<<",
",,,,                            ......-,,,,,<<<<<<<<<<<<<,,,,                            ,,,,<<<<<<<<<<<<<<<<<<<<<<<<<<<<<<<<<<<",
",,,,                            ......o,,,,,,<<<<<<<<<<<<,,,,                            ,,,,<<<<<<<<<<<<<<<<<<<<<<<<<<<<<<<<<<<",
",,,,                            .......%,,,,,<<<<<<<<<<<<,,,,                            ,,,,<<<<<<<<<<<<<<<<<<<<<<<<<<<<<<<<<<<",
",,,,                            ........:,,,,,<<<<<<<<<<<,,,,                            ,,,,<<<<<<<<<<<<<<<<<<<<<<<<<<<<<<<<<<<",
",,,,                            ........+,,,,,,<<<<<<<<<<,,,,                            ,,,,<<<<<<<<<<<<<<<<<<<<<<<<<<<<<<<<<<<",
",,,,                            .........&,,,,,<<<<<<<<<<,,,,                            ,,,,<<<<<<<<<<<<<<<<<<<<<<<<<<<<<<<<<<<",
",,,,                            .........X>,,,,,<<<<<<<<<,,,,                            ,,,,<<<<<<<<<<<<<<<<<<<<<<<<<<<<<<<<<<<",
",,,,                            ..........@,,,,,<<<<<<<<<,,,,                            ,,,,<<<<<<<<<<<<<<<<<<<<<<<<<<<<<<<<<<<",
",,,,                            ...........-,,,,,<<<<<<<<,,,,                            ,,,,<<<<<<<<<<<<<<<<<<<<<<<<<<<<<<<<<<<",
",,,,                            ...........o>,,,,,<<<<<<<,,,,                            ,,,,<<<<<<<<<<<<<<<<<<<<<<<<<<<<<<<<<<<",
",,,,                            ............$,,,,,<<<<<<<,,,,                            ,,,,<<<<<<<<<<<<<<<<<<<<<<<<<<<<<<<<<<<",
",,,,                            .............;,,,,,<<<<<<,,,,                            ,,,,<<<<<<<<<<<<<<<<<<<<<<<<<<<<<<<<<<<",
",,,,                            .............O,,,,,,<<<<<,,,,                            ,,,,<<<<<<<<<<<<<<<<<<<<<<<<<<<<<<<<<<<",
",,,,                            ..............&,,,,,<<<<<,,,,                            ,,,,<<<<<<<<<<<<<<<<<<<<<<<<<<<<<<<<<<<",
",,,,                            ..............X:,,,,,<<<<,,,,                            ,,,,<<<<<<<<<<<<<<<<<<<<<<<<<<<<<<<<<<<",
",,,,                            ...............+,,,,,,<<<,,,,                            ,,,,<<<<<<<<<<<<<<<<<<<<<<<<<<<<<<<<<<<",
",,,,                            ................=,,,,,<<<,,,,                            ,,,,<<<<<<<<<<<<<<<<<<<<<<<<<<<<<<<<<<<",
",,,,                            ................X>,,,,,<<,,,,                            ,,,,<<<<<<<<<<<<<<<<<<<<<<<<<<<<<<<<<<<",
",,,,                            .................$,,,,,<<,,,,                            ,,,,<<<<<<<<<<<<<<<<<<<<<<<<<<<<<<<<<<<",
",,,,                            ..................-,,,,,<,,,,                            ,,,,<<<<<<<<<<<<<<<<<<<<<<<<<<<<<<<<<<<",
",,,,                            ..................o,,,,,,,,,,                            ,,,,<<<<<<<<<<<<<<<<<<<<<<<<<<<<<<<<<<<",
",,,,                            ...................%,,,,,,,,,                            ,,,,<<<<<<<<<<<<<<<<<<<<<<<<<<<<<<<<<<<",
",,,,                            ....................:,,,,,,,,                            ,,,,<<<<<<<<<<<<<<<<<<<<<<<<<<<<<<<<<<<",
",,,,                            ....................+,,,,,,,,                            ,,,,<<<<<<<<<<<<<<<<<<<<<<<<<<<<<<<<<<<",
",,,,                            .....................&,,,,,,,                            ,,,,<<<<<<<<<<<<<<<<<<<<<<<<<<<<<<<<<<<",
",,,,                            .....................X>,,,,,,                            ,,,,<<<<<<<<<<<<<<<<<<<<<<<<<<<<<<<<<<<",
",,,,                            ......................@,,,,,,                            ,,,,<<<<<<<<<<<<<<<<<<<<<<<<<<<<<<<<<<<",
",,,,                            .......................-,,,,,                            ,,,,<<<<<<<<<<<<<<<<<<<<<<<<<<<<<<<<<<<",
",,,,                            .......................o>,,,,                            ,,,,<<<<<<<<<<<<<<<<<<<<<<<<<<<<<<<<<<<",
",,,,                            ........................$,,,,                            ,,,,<<<<<<<<<<<<<<<<<<<<<<<<<<<<<<<<<<<",
",,,,                            .........................;,,,                            ,,,,<<<<<<<<<<<<<<<<<<<<<<<<<<<<<<<<<<<",
",,,,                            .........................O,,,                            ,,,,<<<<<<<<<<<<<<<<<<<<<<<<<<<<<<<<<<<",
",,,,                            ..........................&,,                            ,,,,<<<<<<<<<<<<<<<<<<<<<<<<<<<<<<<<<<<",
",,,,                            ..........................X:,                            ,,,,<<<<<<<<<<<<<<<<<<<<<<<<<<<<<<<<<<<",
",,,,                            ...........................+,                            ,,,,<<<<<<<<<<<<<<<<<<<<<<<<<<<<<<<<<<<",
",,,,                            ............................=                            ,,,,<<<<<<<<<<<<<<<<<<<<<<<<<<<<<<<<<<<",
",,,,                            ............................X                            ,,,,<<<<<<<<<<<<<<<<<<<<<<<<<<<<<<<<<<<",
",,,,                            .............................                            ,,,,<<<<<<<<<<<<<<<<<<<<<<<<<<<<<<<<<<<",
",,,,                            .............................                            ,,,,<<<<<<<<<<<<<<<<<<<<<<<<<<<<<<<<<<<",
",,,,                            $............................                            ,,,,<<<<<<<<<<<<<<<<<<<<<<<<<<<<<<<<<<<",
",,,,                            >X...........................                            ,,,,<<<<<<<<<<<<<<<<<<<<<<<<<<<<<<<<<<<",
",,,,                            ,=...........................                            ,,,,<<<<<<<<<<<<<<<<<<<<<<<<<<<<<<<<<<<",
",,,,                            ,,@..........................                            ,,,,<<<<<<<<<<<<<<<<<<<<<<<<<<<<<<<<<<<",
",,,,                            ,,:X.................................................... ,,,,<<<<<<<<<<<<<<<<<<<<<<<<<<<<<<<<<<<",
",,,,                            ,,,&.................................................... ,,,,<<<<<<<<<<<<<<<<<<<<<<<<<<<<<<<<<<<",
",,,,                            ,,,,O............                               ........ ,,,,<<<<<<<<<<<<<<<<<<<<<<<<<<<<<<<<<<<",
",,,,                            ,,,,;............                               ........ ,,,,<<<<<<<<<<<<<<<<<<<<<<<<<<<<<<<<<<<",
",,,,                            ,,,,,%...........                               ........ ,,,,<<<<<<<<<<<<<<<<<<<<<<<<<<<<<<<<<<<",
",,,,                            ,,,,,>o...........o=,,,,,,,,,,,,,,,,,,,,,,,,,:@......... ,,,,<<<<<<,,,,,,,,,,,,,,,,,,,,,,,,,,,<<",
",,,,                            ,,,,,,-..........o>,,,,,,,,,,,,,,,,,,,,,,,,,,,,#........ ,,,,<<<<<,,,,,,,,,,,,,,,,,,,,,,,,,,,,,<",
",,,,                            ,,,,,,,@.........*,,,,,,,,,,,,,,,,,,,,,,,,,,,,,>O....... ,,,,<<<<,,,,,,,,,,,,,,,,,,,,,,,,,,,,,,,",
",,,,                            ,,,,,,,>X........,,,,,,,,,,,,,,,,,,,,,,,,,,,,,,,;....... ,,,,<<<,,,,,,,,,,,,,,,,,,,,,,,,,,,,,,,,",
",,,,                            ,,,,,,,,&........,,,,,                     ;,,,,,%...... ,,,,<<,,,,,,;                     ,,,,,",
",,,,                            ,,,,,,,,,+.......,,,,,*.....................-,,,,,+..... ,,,,<<,,,,,;.....................&,,,,,",
",,,,                            ,,,,,,,,,:.......*,,,,,#....................X>,,,,:X.... ,,,,<,,,,,>o....................@,,,,,,",
",,,,                            ,,,,,,,,,,%......o>,,,,>O....................@,,,,,=.... ,,,,,,,,,,#....................o>,,,,,<",
",,,,                            ,,,,<,,,,,,o......+,,,,,:X....................*,,,,,@... ,,,,,,,,,=....................X;,,,,,<<",
",,,,                            ,,,,<<,,,,,-.......%,,,,,=....................X:,,,,>o.. ,,,,,,,,>X....................*,,,,,,<<",
",,,,                            ,,,,<<<,,,,,$.......=,,,,,$....................+,,,,,-.. ,,,,,,,,+....................#,,,,,,<<<",
",,,,                            ,,,,<<<,,,,,>X......X:,,,,,+....................%,,,,,$. ,,,,,,,&....................O>,,,,,<<<<",
",,,,                            ,,,,<<<<,,,,,=.......O,,,,,>X....................;,,,,,O ,,,,,,;....................X:,,,,,<<<<<",
",,,,                            ,,,,<<<<,,,,,,+.......#,,,,,;....................O>,,,,; ,,,,,,O....................=,,,,,<<<<<<",
",,,,                            ,,,,<<<<<,,,,,:X.......*,,,,,&....................$,,,,,>,,,,,$....................%,,,,,,<<<<<<",
",,,,                            ,,,,<<<<<<,,,,,&.......X;,,,,,@....................-,,,,,,,,,-....................+,,,,,,<<<<<<<",
",,,,                            ,,,,<<<<<<,,,,,,O.......o>,,,,>O...................X>,,,,,,,>o...................X>,,,,,<<<<<<<<",
",,,,                            ,,,,<<<<<<<,,,,,;........@,,,,,;X...................@,,,,,,,@....................;,,,,,<<<<<<<<<",
",,,,                            ,,,,<<<<<<<<,,,,,$........&,,,,,*....................*,,,,,*....................&,,,,,,<<<<<<<<<",
",,,,                            ,,,,<<<<<<<<,,,,,>o........-,,,,,$...................X:,,,:X...................@,,,,,,<<<<<<<<<<",
",,,,                            ,,,,<<<<<<<<<,,,,,-........X>,,,,,O...................O,,,+...................O>,,,,,<<<<<<<<<<<",
",,,,                            ,,,,<<<<<<<<<<,,,,,@........O,,,,,:X...................%,%...................X;,,,,,<<<<<<<<<<<<",
",,,,                            ,,,,<<<<<<<<<<,,,,,>X........$,,,,,-....................*....................*,,,,,,<<<<<<<<<<<<",
",,,,                            ,,,,<<<<<<<<<<<,,,,,&.........=,,,,,%.......................................#,,,,,,<<<<<<<<<<<<<",
",,,,                            ,,,,<<<<<<<<<<<,,,,,,+........X;,,,,,@.....................................O,,,,,,<<<<<<<<<<<<<<",
",,,,                            ,,,,<<<<<<<<<<<<,,,,,:.........O>,,,,>o...................................X:,,,,,<<<<<<<<<<<<<<<",
",,,,                            ,,,,<<<<<<<<<<<<<,,,,,%.........#,,,,,;...................................-,,,,,<<<<<<<<<<<<<<<<",
",,,,                            ,,,,<<<<<<<<<<<<<,,,,,,o.........&,,,,,*.................................%,,,,,,<<<<<<<<<<<<<<<<",
",,,,                            ,,,,<<<<<<<<<<<<<<,,,,,-..........;,,,,,#...............................+,,,,,,<<<<<<<<<<<<<<<<<",
",,,,                            ,,,,<<<<<<<<<<<<<<<,,,,,$.........X>,,,,>O.............................o>,,,,,<<<<<<<<<<<<<<<<<<",
",,,,                            ,,,,<<<<<<<<<<<<<<<,,,,,>X.........+,,,,,:X............................;,,,,,<<<<<<<<<<<<<<<<<<<",
",,,,                            ,,,,<<<<<<<<<<<<<<<<,,,,,=..........%,,,,,=...........................&,,,,,,<<<<<<<<<<<<<<<<<<<",
",,,,                            ,,,,<<<<<<<<<<<<<<<<,,,,,,+..........=,,,,,%.........................#,,,,,,<<<<<<<<<<<<<<<<<<<<",
",,,,                            ,,,,<<<<<<<<<<<<<<<<<,,,,,:+          >,,,,,+.......................O>,,,,,<<<<<<<<<<<<<<<<<<<<<",
",,,,,,,,,,,,,,,,,,,,,,,,,,,,,,,,,,,,<<<<<<<<<<<<<<<<<<,,,,,,,,,,,,,,,,,,,,,,+.......................O>,,,,,<<<<<<<<<<<<<<<<<<<<<",
",,,,,,,,,,,,,,,,,,,,,,,,,,,,,,,,,,,,<<<<<<<<<<<<<<<<<<,,,,,,,,,,,,,,,,,,,,,$.........................@,,,,,,<<<<<<<<<<<<<<<<<<<<",
"<,,,,,,,,,,,,,,,,,,,,,,,,,,,,,,,,,,,<<<<<<<<<<<<<<<<<<<,,,,,,,,,,,,,,,,,,,=...........................&,,,,,,<<<<<<<<<<<<<<<<<<<",
"<,,,,,,,,,,,,,,,,,,,,,,,,,,,,,,,,,,<<<<<<<<<<<<<<<<<<<<<,,,,,,,,,,,,,,,,,;X............................;,,,,,<<<<<<<<<<<<<<<<<<<",
"<<<<<<<<<<<<<<<<<<<<<<<<<<<<<<<<<<<<<<<<<<<<<<<<<<<<<<<<<<<<<<<<<<<,,,,,>O.............................X>,,,,,<<<<<<<<<<<<<<<<<<",
"<<<<<<<<<<<<<<<<<<<<<<<<<<<<<<<<<<<<<<<<<<<<<<<<<<<<<<<<<<<<<<<<<<,,,,,,#...............................+,,,,,,<<<<<<<<<<<<<<<<<",
"<<<<<<<<<<<<<<<<<<<<<<<<<<<<<<<<<<<<<<<<<<<<<<<<<<<<<<<<<<<<<<<<<,,,,,,*.................................%,,,,,,<<<<<<<<<<<<<<<<",
"<<<<<<<<<<<<<<<<<<<<<<<<<<<<<<<<<<<<<<<<<<<<<<<<<<<<<<<<<<<<<<<<<,,,,,;...................................=,,,,,<<<<<<<<<<<<<<<<",
"<<<<<<<<<<<<<<<<<<<<<<<<<<<<<<<<<<<<<<<<<<<<<<<<<<<<<<<<<<<<<<<<,,,,,>o...................................X:,,,,,<<<<<<<<<<<<<<<",
"<<<<<<<<<<<<<<<<<<<<<<<<<<<<<<<<<<<<<<<<<<<<<<<<<<<<<<<<<<<<<<<,,,,,,+.....................................O>,,,,,<<<<<<<<<<<<<<",
"<<<<<<<<<<<<<<<<<<<<<<<<<<<<<<<<<<<<<<<<<<<<<<<<<<<<<<<<<<<<<<,,,,,,%.......................................#,,,,,,<<<<<<<<<<<<<",
"<<<<<<<<<<<<<<<<<<<<<<<<<<<<<<<<<<<<<<<<<<<<<<<<<<<<<<<<<<<<<<,,,,,=.........................................*,,,,,,<<<<<<<<<<<<",
"<<<<<<<<<<<<<<<<<<<<<<<<<<<<<<<<<<<<<<<<<<<<<<<<<<<<<<<<<<<<<,,,,,:X....................#....................X;,,,,,<<<<<<<<<<<<",
"<<<<<<<<<<<<<<<<<<<<<<<<<<<<<<<<<<<<<<<<<<<<<<<<<<<<<<<<<<<<,,,,,,O....................#,$....................o>,,,,,<<<<<<<<<<<",
"<<<<<<<<<<<<<<<<<<<<<<<<<<<<<<<<<<<<<<<<<<<<<<<<<<<<<<<<<<<,,,,,,#....................O>,,O....................@,,,,,,<<<<<<<<<<",
"<<<<<<<<<<<<<<<<<<<<<<<<<<<<<<<<<<<<<<<<<<<<<<<<<<<<<<<<<<,,,,,,*....................X;,,,:X....................&,,,,,,<<<<<<<<<",
"<<<<<<<<<<<<<<<<<<<<<<<<<<<<<<<<<<<<<<<<<<<<<<<<<<<<<<<<<<,,,,,;X....................*,,,,,=.....................-,,,,,<<<<<<<<<",
"<<<<<<<<<<<<<<<<<<<<<<<<<<<<<<<<<<<<<<<<<<<<<<<<<<<<<<<<<,,,,,>o....................#,,,,,,,$....................X>,,,,,<<<<<<<<",
"<<<<<<<<<<<<<<<<<<<<<<<<<<<<<<<<<<<<<<<<<<<<<<<<<<<<<<<<,,,,,,@....................O,,,,,,,,,+....................O,,,,,,<<<<<<<",
"<<<<<<<<<<<<<<<<<<<<<<<<<<<<<<<<<<<<<<<<<<<<<<<<<<<<<<<,,,,,,&....................X:,,,,,,,,,>X....................$,,,,,,<<<<<<",
"<<<<<<<<<<<<<<<<<<<<<<<<<<<<<<<<<<<<<<<<<<<<<<<<<<<<<<<,,,,,-.....................=,,,,,,,,,,,-.....................=,,,,,,<<<<<",
"<<<<<<<<<<<<<<<<<<<<<<<<<<<<<<<<<<<<<<<<<<<<<<<<<<<<<<,,,,,>X....................$,,,,,,<,,,,,,%....................X;,,,,,<<<<<",
"<<<<<<<<<<<<<<<<<<<<<<<<<<<<<<<<<<<<<<<<<<<<<<<<<<<<<,,,,,,O....................O,,,,,,<<<,,,,,,+....................O>,,,,,<<<<",
"<<<<<<<<<<<<<<<<<<<<<<<<<<<<<<<<<<<<<<<<<<<<<<<<<<<<,,,,,,$....................X:,,,,,<<<<<,,,,,>X....................#,,,,,,<<<",
"<<<<<<<<<<<<<<<<<<<<<<<<<<<<<<<<<<<<<<<<<<<<<<<<<<<,,,,,,=.....................=,,,,,<<<<<<<,,,,,-.....................*,,,,,,<<",
"<<<<<<<<<<<<<<<<<<<<<<<<<<<<<<<<<<<<<<<<<<<<<<<<<<<,,,,,;X....................$,,,,,,<<<<<<<,,,,,,%.....................;,,,,,<<",
"<<<<<<<<<<<<<<<<<<<<<<<<<<<<<<<<<<<<<<<<<<<<<<<<<<,,,,,>O....................O,,,,,,<<<<<<<<<,,,,,,+....................o>,,,,,<",
"<<<<<<<<<<<<<<<<<<<<<<<<<<<<<<<<<<<<<<<<<<<<<<<<<,,,,,,#....................X:,,,,,<<<<<<<<<<<,,,,,>X....................@,,,,,,",
"<<<<<<<<<<<<<<<<<<<<<<<<<<<<<<<<<<<<<<<<<<<<<<<<<,,,,,&.....................=,,,,,<<<<<<<<<<<<<,,,,,-.....................%,,,,,",
"<<<<<<<<<<<<<<<<<<<<<<<<<<<<<<<<<<<<<<<<<<<<<<<<<,,,,,                      ,,,,,,<<<<<<<<<<<<<,,,,,,;                     ,,,,,",
"<<<<<<<<<<<<<<<<<<<<<<<<<<<<<<<<<<<<<<<<<<<<<<<<<,,,,,,,,,,,,,,,,,,,,,,,,,,,,,,,,<<<<<<<<<<<<<<<,,,,,,,,,,,,,,,,,,,,,,,,,,,,,,,,",
"<<<<<<<<<<<<<<<<<<<<<<<<<<<<<<<<<<<<<<<<<<<<<<<<<,,,,,,,,,,,,,,,,,,,,,,,,,,,,,,,<<<<<<<<<<<<<<<<<,,,,,,,,,,,,,,,,,,,,,,,,,,,,,,,",
"<<<<<<<<<<<<<<<<<<<<<<<<<<<<<<<<<<<<<<<<<<<<<<<<<<,,,,,,,,,,,,,,,,,,,,,,,,,,,,,<<<<<<<<<<<<<<<<<<<,,,,,,,,,,,,,,,,,,,,,,,,,,,,,<",
"<<<<<<<<<<<<<<<<<<<<<<<<<<<<<<<<<<<<<<<<<<<<<<<<<<<,,,,,,,,,,,,,,,,,,,,,,,,,,,<<<<<<<<<<<<<<<<<<<<<,,,,,,,,,,,,,,,,,,,,,,,,,,,<<"
};
