/* XPM */
static char *_c5b3c5305874fcbee64b43e4bf936e0[] = {
/* columns rows colors chars-per-pixel */
"16 16 62 1 ",
"  c #005D84",
". c #066187",
"X c #0C658A",
"o c #0F678B",
"O c #12688D",
"+ c #156A8E",
"@ c #1B6E91",
"# c #1E7092",
"$ c #217294",
"% c #277697",
"& c #2A7898",
"* c #2D7A9A",
"= c #367F9E",
"- c #39819F",
"; c #3C83A1",
": c #5A96AF",
"> c #5D98B1",
", c #609AB2",
"< c #6CA2B8",
"1 c #72A5BB",
"2 c #75A7BC",
"3 c #78A9BE",
"4 c #7BABBF",
"5 c #7DADC0",
"6 c #87B3C5",
"7 c #91B9CA",
"8 c #96BCCC",
"9 c #A2C4D2",
"0 c #BDD5DF",
"q c #C6D9E2",
"w c #C9DDE5",
"e c #CADDE5",
"r c #D5E4EB",
"t c #DAE6EC",
"y c #DCE7ED",
"u c #DBE8EE",
"i c #DEEAEF",
"p c #E2EBF0",
"a c #E1ECF1",
"s c #E4EEF2",
"d c #E7EFF3",
"f c #E7F0F3",
"g c #E8F0F4",
"h c #E9F0F4",
"j c #EBF1F5",
"k c #EBF2F5",
"l c #EEF4F6",
"z c #EFF4F7",
"x c #F0F5F7",
"c c #F2F6F8",
"v c #F3F7F9",
"b c #F6F9FB",
"n c #F8FAFB",
"m c #F9FBFC",
"M c #FAFCFD",
"N c #FBFDFD",
"B c #FCFDFE",
"V c #FDFDFE",
"C c #FDFEFE",
"Z c #FEFEFF",
"A c gray100",
"S c None",
/* pixels */
"mAAAmSSmAAAbSSSS",
"A   9jSA  oASSSS",
"A   .wSA  oASSSS",
"A    @fA  oASSSS",
"A     -m  oASSSS",
"A      ,  oASSSS",
"A   ,     oASSSS",
"A   m=#8Ai4AAAAc",
"A   As73 $cv% 2A",
"A   AawA; >> ;mq",
"A   ASj0d+  OayS",
"mAAAmSStA6  4jSS",
"SSSSSSSxuo  XrSS",
"SSSSSSSb* <1 %bS",
"SSSSSSl: &bm; ,z",
"SSSSSSgAANSSNAAd"
};
