/* XPM */
static char *_6ef477b6c0a4455ffdb9eedb1d3bfed[] = {
/* columns rows colors chars-per-pixel */
"32 32 152 2 ",
"   c #005D84",
".  c #136086",
"X  c #146086",
"o  c #176188",
"O  c #176288",
"+  c #196389",
"@  c #1B658A",
"#  c #1D668B",
"$  c #1D668C",
"%  c #1F688C",
"&  c #21698E",
"*  c #23698E",
"=  c #226A8E",
"-  c #246B8E",
";  c #246B8F",
":  c #256C90",
">  c #276D90",
",  c #286E91",
"<  c #2C7093",
"1  c #2C7193",
"2  c #2F7295",
"3  c #307395",
"4  c #327496",
"5  c #367798",
"6  c #387899",
"7  c #3A799A",
"8  c #3D7B9C",
"9  c #3D7D9C",
"0  c #3F7E9C",
"q  c #3F7E9D",
"w  c #417E9E",
"e  c #417F9E",
"r  c #437F9F",
"t  c #4984A2",
"y  c #4B86A3",
"u  c #4D86A5",
"i  c #4E87A4",
"p  c #4F87A5",
"a  c #528AA6",
"s  c #528AA7",
"d  c #588EAA",
"f  c #588FAA",
"g  c #598FAA",
"h  c #5C90AC",
"j  c #5E91AC",
"k  c #5E92AD",
"l  c #5F93AD",
"z  c #6496B0",
"x  c #6697B0",
"c  c #6698B1",
"v  c #6899B1",
"b  c #6C9CB4",
"n  c #6D9DB4",
"m  c #709EB6",
"M  c #709FB6",
"N  c #729FB7",
"B  c #72A0B6",
"V  c #75A2B9",
"C  c #7AA5BB",
"Z  c #7BA5BB",
"A  c #7DA7BC",
"S  c #81AABF",
"D  c #82AABF",
"F  c #83ACC0",
"G  c #84ACC0",
"H  c #85ADC1",
"J  c #85AEC1",
"K  c #87AEC1",
"L  c #89AFC3",
"P  c #8CB1C4",
"I  c #8CB2C4",
"U  c #8EB3C6",
"Y  c #8FB3C6",
"T  c #90B3C5",
"R  c #97B9CA",
"E  c #97BACB",
"W  c #98BACA",
"Q  c #99BACB",
"!  c #9ABBCB",
"~  c #9EBCCD",
"^  c #A0BFCE",
"/  c #A1C0CF",
"(  c #A4C2D1",
")  c #A6C2D1",
"_  c #A7C3D3",
"`  c #A9C5D3",
"'  c #AEC8D6",
"]  c #B1CBD7",
"[  c #B5CDD9",
"{  c #BAD0DB",
"}  c #BBD0DD",
"|  c #BCD2DD",
" . c #BDD3DD",
".. c #C0D4DF",
"X. c #C3D6E0",
"o. c #C5D7E1",
"O. c #C4D8E0",
"+. c #C6D9E2",
"@. c #C6D9E3",
"#. c #C8D9E3",
"$. c #CBDCE5",
"%. c #CDDDE5",
"&. c #CEDFE6",
"*. c #D2E0E7",
"=. c #D5E3E9",
"-. c #D6E3EA",
";. c #D7E4EA",
":. c #D7E4EB",
">. c #D8E5EB",
",. c #D9E5EC",
"<. c #DCE8ED",
"1. c #DEE9EE",
"2. c #E1EAEF",
"3. c #E2EBF0",
"4. c #E3ECF0",
"5. c #E3EDF2",
"6. c #E4EDF1",
"7. c #E4EDF2",
"8. c #E5EEF2",
"9. c #E6EEF2",
"0. c #E7F0F2",
"q. c #E8F0F3",
"w. c #E9F0F3",
"e. c #EAF1F4",
"r. c #EAF1F5",
"t. c #EBF1F5",
"y. c #EDF3F5",
"u. c #ECF3F6",
"i. c #EDF3F6",
"p. c #EEF4F6",
"a. c #EFF4F7",
"s. c #F0F5F7",
"d. c #F2F6F8",
"f. c #F3F7F9",
"g. c #F4F7F9",
"h. c #F4F8F9",
"j. c #F4F8FA",
"k. c #F5F8FA",
"l. c #F5F9FA",
"z. c #F6F9FA",
"x. c #F7FAFB",
"c. c #F8FAFB",
"v. c #FAFCFC",
"b. c #FBFDFC",
"n. c #FAFCFD",
"m. c #FBFCFD",
"M. c #FCFDFE",
"N. c #FDFEFE",
"B. c #FEFEFE",
"V. c #FEFEFF",
"C. c gray100",
"Z. c None",
/* pixels */
"C.C.C.C.C.C.C.C.q.C.Z.Z.Z.Z.C.C.C.C.C.C.C.C.C.Z.Z.Z.Z.Z.Z.Z.Z.Z.",
"C.              U z.Z.Z.Z.Z.C.              C.Z.Z.Z.Z.Z.Z.Z.Z.Z.",
"C.              % &.C.Z.Z.Z.C.              C.Z.Z.Z.Z.Z.Z.Z.Z.Z.",
"C.                k w.C.Z.Z.C.              C.Z.Z.Z.Z.Z.Z.Z.Z.Z.",
"C.                  ^ x.Z.Z.C.              C.Z.Z.Z.Z.Z.Z.Z.Z.Z.",
"C.                  9 @.C.Z.C.              C.Z.Z.Z.Z.Z.Z.Z.Z.Z.",
"C.                    V f.C.C.              C.Z.Z.Z.Z.Z.Z.Z.Z.Z.",
"C.                    ; ^ C.C.              C.Z.Z.Z.Z.Z.Z.Z.Z.Z.",
"C.                      g a.C.              C.Z.Z.Z.Z.Z.Z.Z.Z.Z.",
"C.                      O T C.              C.Z.Z.Z.Z.Z.Z.Z.Z.Z.",
"C.                        7 C               C.Z.Z.Z.Z.Z.Z.Z.Z.Z.",
"C.                          #               C.Z.Z.Z.Z.Z.Z.Z.Z.Z.",
"C.              $                           C.Z.Z.Z.Z.Z.Z.Z.Z.Z.",
"C.              S >                         C.Z.Z.Z.Z.Z.Z.Z.Z.Z.",
"C.              2.B                         C.Z.Z.Z.Z.Z.Z.Z.Z.Z.",
"C.              z.r.e   ) C.C.C.C.C.C.6.s   C.Z.C.C.C.C.C.C.C.C.",
"C.              f.C.F 2 ) m.        k >.{ h >.C.C.m         6.C.",
"C.              f.C.a.g i 0.#.        m =.<.6.C.H -     * U m.Z.",
"C.              f.Z.C.] 3 c v.R         R C.z.o.,       z 6.C.Z.",
"C.              f.Z.Z.z.A X R C.m       7 ..z.t       y *.C.Z.Z.",
"C.              f.Z.Z.C.2.s O X.w.u       e F       < [ C.Z.Z.Z.",
"C.              f.Z.Z.Z.C.| . 5 2.} 8               ! c.Z.Z.Z.Z.",
"C.              f.Z.Z.Z.Z.y.H ; L C.~ *           C y.Z.Z.Z.Z.Z.",
"C.              g.Z.Z.Z.Z.C.m.$.@.m.r.g           >.C.Z.Z.Z.Z.Z.",
"2.z.f.f.f.f.f.g.2.Z.Z.Z.Z.Z.C.C.C.C.D @           z 2.C.Z.Z.Z.Z.",
"Z.Z.Z.Z.Z.Z.Z.Z.Z.Z.Z.Z.Z.Z.Z.Z.C._ 4               U f.Z.Z.Z.Z.",
"Z.Z.Z.Z.Z.Z.Z.Z.Z.Z.Z.Z.Z.Z.Z.C.=.e       < v       * ` C.Z.Z.Z.",
"Z.Z.Z.Z.Z.Z.Z.Z.Z.Z.Z.Z.Z.Z.C.y.k       < ' >.9       9 o.C.Z.Z.",
"Z.Z.Z.Z.Z.Z.Z.Z.Z.Z.Z.Z.Z.Z.z.H       X U C.C.| >       k 1.C.Z.",
"Z.Z.Z.Z.Z.Z.Z.Z.Z.Z.Z.Z.Z.a.!         n 6.C.Z.C.U @       b r.C.",
"Z.Z.Z.Z.Z.Z.Z.Z.Z.Z.Z.Z.C.=.        u &.C.Z.Z.C.C.c         @.C.",
"Z.Z.Z.Z.Z.Z.Z.Z.Z.Z.Z.Z.C.C.C.C.C.C.C.C.Z.Z.Z.Z.C.C.C.C.C.C.C.C."
};
