/* XPM */
static char *_c74461f79804418d7d96456d15c10a3[] = {
/* columns rows colors chars-per-pixel */
"48 48 19 1 ",
"  c #005D84",
". c #115E85",
"X c #20688D",
"o c #2F7294",
"O c #3E7C9C",
"+ c #4D86A4",
"@ c #5B90AB",
"# c #6A9AB3",
"$ c #79A4BA",
"% c #88AFC2",
"& c #97B9CA",
"* c #A6C3D1",
"= c #B5CDD9",
"- c #C4D7E1",
"; c #D2E1E8",
": c #E1EBF0",
"> c #F0F5F7",
", c gray100",
"< c None",
/* pixels */
"<<<<<<<<<<<<<<<<<<<<<<<<<<<<<<<<<<<<<<<<<<<<<<<<",
"<,,,,,,,,,,,,,,<<<<<<<,,,,,,,,,,,,<<<<<<<<<<<<<<",
"<,           >,<<<<<<<,          ,<<<<<<<<<<<<<<",
"<,           $,,<<<<<<,          ,<<<<<<<<<<<<<<",
"<,           .;,,<<<<<,          ,<<<<<<<<<<<<<<",
"<,           .O,,<<<<<,          ,<<<<<<<<<<<<<<",
"<,           ..&,,<<<<,          ,<<<<<<<<<<<<<<",
"<,           ..X:,<<<<,          ,<<<<<<<<<<<<<<",
"<,           ...@,,<<<,          ,<<<<<<<<<<<<<<",
"<,           ....=,,<<,          ,<<<<<<<<<<<<<<",
"<,           ....X>,<<,          ,<<<<<<<<<<<<<<",
"<,           .....$,,<,          ,<<<<<<<<<<<<<<",
"<,           ......-,,,          ,<<<<<<<<<<<<<<",
"<,           ......O,,,          ,<<<<<<<<<<<<<<",
"<,           .......%,,          ,<<<<<<<<<<<<<<",
"<,           .......X:,          ,<<<<<<<<<<<<<<",
"<,           ........+,          ,<<<<<<<<<<<<<<",
"<,           .........=          ,<<<<<<<<<<<<<<",
"<,           .........X          ,<<<<<<<<<<<<<<",
"<,           X.........          ,<<<<<<<<<<<<<<",
"<,           %.........          ,<<<<<<<<<<<<<<",
"<,           ,O........          ,<<<<<<<<<<<<<<",
"<,           ,-........       .. ,<<<<<<<<<<<<<<",
"<,           ,,$..$*>,,,,,,,,>o. ,<<;,,,,,,,,,,<",
"<,           ,,>X.$,>O......#,-. ,,,,#......o,><",
"<,           ,,,=.X;,*......X:,% ,,,&......X>,,<",
"<,           ,<,,+.O>,#......+,,$,,;X......-,,<<",
"<,           ,<<,:X.@,,O......&,>,,O......&,,<<<",
"<,           ,<<,,%..&,:X......;,,%......@,,<<<<",
"<,           ,<<<,,O..;,=......O,-......o>,<<<<<",
"<,           ,<<<,,-..o>,$......#o......;,,<<<<<",
"<,           ,<<<<,,$..+,,+............*,,<<<<<<",
"<,           ,<<<<<,>o..%,>X..........#,,<<<<<<<",
"<,           ,<<<<<,,=...-,-.........O>,<<<<<<<<",
"<,           ,<<<<<<,,&%%&,,$........-,,<<<<<<<<",
"<,,,,,,,,,,,,,<<<<<<<,,,,,,>o........#,,<<<<<<<<",
"<<<<<<<<<<<<<<<<<<<<<<<<<,,@..........*,,<<<<<<<",
"<<<<<<<<<<<<<<<<<<<<<<<<,,%...........X;,,<<<<<<",
"<<<<<<<<<<<<<<<<<<<<<<<,,-.............O>,<<<<<<",
"<<<<<<<<<<<<<<<<<<<<<<,,>X......*+......@,,<<<<<",
"<<<<<<<<<<<<<<<<<<<<<<,,O......#,>X......&,,<<<<",
"<<<<<<<<<<<<<<<<<<<<<,,$......O>,,-.......;,,<<<",
"<<<<<<<<<<<<<<<<<<<<,,=......X;,,,,%......o>,<<<",
"<<<<<<<<<<<<<<<<<<<,,;X......&,,<<,,+......+,,<<",
"<<<<<<<<<<<<<<<<<<<,>O......@,,<<<,,>X.....X%,,<",
"<<<<<<<<<<<<<<<<<<,,>X.....O>,<<<<<,,:X.....X,,<",
"<<<<<<<<<<<<<<<<<<<,,,,,,,,,,,<<<<<<,,,,,,,,,,,<",
"<<<<<<<<<<<<<<<<<<<<<<<<<<<<<<<<<<<<<<<<<<<<<<<<"
};
